<svg xmlns="http://www.w3.org/2000/svg" fill="none" viewBox="0 0 512 512" id="React-Query-Icon--Streamline-Svg-Logos" height="512" width="512">
  <desc>
    React Query Icon Streamline Icon: https://streamlinehq.com
  </desc>
  <path fill="#00435b" d="m314.71146666666664 310.51626666666664 -9.616 16.698666666666664c-2.8970666666666665 5.029866666666667 -8.259733333333333 8.130133333333333 -14.064533333333333 8.130133333333333H217.3637333333333c-5.8048 0 -11.167466666666666 -3.1002666666666667 -14.064533333333333 -8.130133333333333l-9.617066666666666 -16.698666666666664h121.02933333333334Zm26.921599999999998 -46.745599999999996 -16.956266666666664 29.441599999999998h-140.95999999999998l-16.955199999999998 -29.441599999999998h174.87146666666666Zm-16.333333333333332 -45.71146666666667 16.360533333333333 28.40853333333333H166.7344l16.36 -28.40853333333333h142.20533333333333Zm-34.2688 -43.212799999999994c5.8048 0 11.167466666666666 3.1002666666666667 14.064533333333333 8.130133333333333l10.238933333333332 17.778666666666666H193.05973333333333l10.239466666666665 -17.778666666666666c2.8970666666666665 -5.029866666666667 8.259733333333333 -8.130133333333333 14.064533333333333 -8.130133333333333h73.6672Z" stroke-width="5.3333"></path>
  <path fill="#002b3b" d="M110.1488 167.10026666666664c-8.160533333333333 -39.57013333333333 -9.911466666666666 -69.91999999999999 -4.636799999999999 -91.95786666666666 3.1370666666666662 -13.107199999999999 8.872533333333333 -23.799786666666666 17.594133333333332 -31.51429333333333 9.207466666666665 -8.14448 20.848533333333332 -12.141013333333333 33.928533333333334 -12.141013333333333 21.578666666666667 0 44.2624 9.84 68.50453333333333 28.53317333333333 9.888 7.625066666666666 20.150399999999998 16.815466666666666 30.808 27.576533333333334 0.8485333333333333 -1.0922666666666667 1.8074666666666666 -2.122133333333333 2.8757333333333333 -3.074133333333333 30.131733333333333 -26.851733333333332 55.49973333333333 -43.53472 77.19733333333333 -49.96725333333333 12.901333333333334 -3.8247466666666665 25.0144 -4.189173333333333 36.044799999999995 -0.47706666666666664 11.6432 3.9183466666666664 20.92053333333333 12.01808 27.46613333333333 23.363253333333333 10.802133333333332 18.723733333333332 13.650666666666666 43.32693333333333 9.623466666666666 73.70506666666665 -1.6416 12.382399999999999 -4.4479999999999995 25.87093333333333 -8.413333333333332 40.48533333333333 1.496 0.1808 2.995733333333333 0.5125333333333333 4.480533333333333 1.0042666666666666 38.230399999999996 12.6688 65.30133333333333 26.2928 81.69066666666666 41.86293333333333 9.751466666666666 9.263466666666666 16.11893333333333 19.57653333333333 18.4208 30.99253333333333 2.4298666666666664 12.0496 0.0608 24.136 -6.476799999999999 35.47253333333333 -10.782399999999999 18.69653333333333 -30.607466666666667 33.44266666666667 -58.85119999999999 45.12213333333333 -11.340799999999998 4.6895999999999995 -24.172266666666665 8.937066666666666 -38.508799999999994 12.757333333333332 0.6544 1.4768 1.1616 3.045333333333333 1.5013333333333332 4.6912 8.160533333333333 39.569599999999994 9.911466666666666 69.91946666666666 4.636799999999999 91.95786666666666 -3.1370666666666662 13.107199999999999 -8.873066666666666 23.799466666666664 -17.594133333333332 31.514133333333334 -9.207466666666665 8.144533333333332 -20.848533333333332 12.1408 -33.929066666666664 12.1408 -21.57813333333333 0 -44.2624 -9.84 -68.50453333333333 -28.53333333333333 -9.993066666666666 -7.7056000000000004 -20.368533333333332 -17.010666666666665 -31.148266666666665 -27.92 -1.1093333333333333 1.7349333333333332 -2.470933333333333 3.3472 -4.0816 4.782933333333333 -30.131733333333333 26.8512 -55.49973333333333 43.53439999999999 -77.19733333333333 49.96693333333333 -12.901333333333334 3.824533333333333 -25.0144 4.1888 -36.044799999999995 0.47679999999999995 -11.6432 -3.9184 -20.92053333333333 -12.018133333333333 -27.46613333333333 -23.3632 -10.802133333333332 -18.723733333333332 -13.650666666666666 -43.32639999999999 -9.623466666666666 -73.70506666666665 1.7008 -12.829866666666668 4.652266666666666 -26.847466666666666 8.847466666666666 -42.074666666666666 -1.6394666666666666 -0.16586666666666666 -3.2863999999999995 -0.5125333333333333 -4.914666666666666 -1.0522666666666667 -38.230399999999996 -12.669333333333334 -65.30127999999999 -26.29333333333333 -81.69077333333333 -41.86293333333333 -9.751306666666666 -9.263466666666666 -16.11904 -19.57653333333333 -18.420906666666667 -30.99253333333333 -2.429669333333333 -12.0496 -0.060586666666666664 -24.136 6.477226666666667 -35.47253333333333 10.782239999999998 -18.69653333333333 30.607519999999997 -33.44266666666667 58.85098666666667 -45.12213333333333 11.678933333333333 -4.829866666666666 24.938133333333333 -9.189866666666667 39.794133333333335 -13.0976 -0.5290666666666666 -1.2959999999999998 -0.9472 -2.6581333333333332 -1.24 -4.077866666666666Z" stroke-width="5.3333"></path>
  <path fill="#ff4154" d="M376.7237333333333 347.42293333333333c3.8015999999999996 -0.6736 7.443733333333332 1.7637333333333332 8.2928 5.5024l0.0464 0.22133333333333333 0.4053333333333333 2.104c13.139733333333332 69.08319999999999 3.883733333333333 103.62506666666667 -27.769066666666664 103.62506666666667 -30.968533333333333 0 -70.39146666666666 -29.47413333333333 -118.26826666666666 -88.42346666666666 -1.0581333333333331 -1.3024 -1.6288 -2.9328000000000003 -1.6144 -4.610666666666667 0.034666666666666665 -3.9088 3.1712 -7.064 7.052266666666666 -7.1488l0.2245333333333333 -0.0010666666666666667 2.5210666666666666 0.017599999999999998c20.147199999999998 0.10933333333333334 39.7328 -0.5930666666666666 58.75733333333333 -2.1071999999999997 22.4576 -1.7872 45.90826666666666 -4.846933333333333 70.352 -9.1792Zm-217.37706666666668 -52.22026666666666 0.12106666666666667 0.20479999999999998 1.2650666666666666 2.2079999999999997c10.138133333333332 17.625066666666665 20.7008 34.3536 31.687466666666666 50.1856 12.9392 18.644799999999996 27.4896 37.519466666666666 43.651733333333326 56.624 2.5002666666666666 2.9557333333333333 2.2144 7.3424 -0.6058666666666667 9.951466666666665l-0.18346666666666667 0.16426666666666667 -1.6266666666666665 1.3994666666666666c-53.474133333333334 45.8192 -88.22986666666665 54.96586666666667 -104.26826666666666 27.441066666666664 -15.698666666666664 -26.9424 -10.006933333333333 -75.93173333333333 17.0752 -146.96746666666667 0.5952 -1.5610666666666666 1.7135999999999998 -2.8671999999999995 3.164266666666667 -3.694933333333333 3.3909333333333334 -1.9354666666666667 7.690133333333333 -0.8181333333333334 9.719466666666666 2.4837333333333333ZM403.8592 193.264l0.21919999999999998 0.07146666666666666 2.0128 0.6949333333333333C472.096 216.99093333333332 497.1733333333333 242.224 481.32213333333334 269.72906666666665c-15.502933333333333 26.900266666666667 -60.571200000000005 46.4864 -135.20533333333333 58.75786666666666 -1.6645333333333332 0.27359999999999995 -3.3722666666666665 -0.04479999999999999 -4.826133333333333 -0.8997333333333333 -3.4341333333333335 -2.0186666666666664 -4.5818666666666665 -6.439466666666666 -2.5626666666666664 -9.874133333333333 10.6896 -18.183466666666668 20.31733333333333 -36.276266666666665 28.882666666666665 -54.27786666666666 9.714666666666666 -20.416533333333334 18.830933333333334 -42.330666666666666 27.349333333333334 -65.7424 1.2917333333333332 -3.5498666666666665 5.085333333333333 -5.4778666666666656 8.679466666666666 -4.4928l0.21973333333333334 0.064Zm-233.15306666666666 -11.559999999999999c3.4341333333333335 2.0186666666666664 4.5818666666666665 6.439466666666666 2.5626666666666664 9.874133333333333 -10.6896 18.183466666666668 -20.31733333333333 36.276266666666665 -28.882666666666665 54.27839999999999 -9.714666666666666 20.415999999999997 -18.830933333333334 42.33013333333333 -27.349333333333334 65.7424 -1.3178666666666665 3.6218666666666666 -5.2416 5.5552 -8.8992 4.428266666666667l-0.21919999999999998 -0.07146666666666666 -2.0128 -0.6949333333333333C39.90058666666666 292.30026666666663 14.823519999999998 267.06719999999996 30.674506666666666 239.56266666666664c15.502773333333332 -26.900799999999997 60.57136 -46.48693333333333 135.20549333333332 -58.7584 1.6645333333333332 -0.27359999999999995 3.3717333333333332 0.04479999999999999 4.826133333333333 0.8997333333333333Zm211.90293333333332 -113.08906666666667c15.698666666666664 26.9424 10.006933333333333 75.93173333333333 -17.0752 146.96746666666667 -0.5952 1.5610666666666666 -1.7135999999999998 2.8671999999999995 -3.164266666666667 3.6954666666666665 -3.3909333333333334 1.9349333333333334 -7.690133333333333 0.8175999999999999 -9.719466666666666 -2.4842666666666666l-0.12106666666666667 -0.20479999999999998 -1.2650666666666666 -2.2079999999999997c-10.138133333333332 -17.625066666666665 -20.7008 -34.3536 -31.687466666666666 -50.1856 -12.9392 -18.644266666666667 -27.4896 -37.519466666666666 -43.651733333333326 -56.624 -2.5002666666666666 -2.9557333333333333 -2.214933333333333 -7.3424 0.6058666666666667 -9.951466666666665l0.18346666666666667 -0.16426666666666667 1.6261333333333332 -1.3994666666666666C331.8144 50.237066666666664 366.5706666666666 41.09013333333333 382.60906666666665 68.61493333333333ZM157.00213333333332 52.21877333333333c30.969066666666667 0 70.392 29.47456 118.2688 88.42336 1.0581333333333331 1.3024 1.6288 2.9328000000000003 1.6144 4.610666666666667 -0.034666666666666665 3.9088 -3.1712 7.064 -7.052266666666666 7.1488l-0.2245333333333333 0.0015999999999999999 -2.5210666666666666 -0.01813333333333333c-20.147199999999998 -0.10933333333333334 -39.7328 0.5930666666666666 -58.75733333333333 2.1071999999999997 -22.4576 1.7877333333333332 -45.90826666666666 4.847466666666667 -70.352 9.1792 -3.8015999999999996 0.6736 -7.444266666666666 -1.7631999999999999 -8.2928 -5.5018666666666665l-0.0464 -0.22186666666666666 -0.4053333333333333 -2.104c-13.140266666666665 -69.08319999999999 -3.883733333333333 -103.62496 27.76853333333333 -103.62496Z" stroke-width="5.3333"></path>
  <path fill="#ffd94c" d="M223.2832 175.75253333333333h61.83626666666667c9.043199999999999 0 17.395733333333332 4.8368 21.897066666666664 12.68l31.04853333333333 54.1008c4.466666666666667 7.782933333333333 4.466666666666667 17.351466666666667 0 25.133866666666666l-31.04853333333333 54.1008c-4.501333333333333 7.8431999999999995 -12.853866666666665 12.68 -21.897066666666664 12.68H223.2832c-9.043199999999999 0 -17.395733333333332 -4.8368 -21.897066666666664 -12.68l-31.049066666666665 -54.1008c-4.4661333333333335 -7.7824 -4.4661333333333335 -17.35093333333333 0 -25.133866666666666l31.049066666666665 -54.1008c4.501333333333333 -7.8431999999999995 12.853866666666665 -12.68 21.897066666666664 -12.68Zm52.41173333333333 16.329066666666666c9.047999999999998 0 17.404266666666665 4.8416 21.903466666666667 12.691733333333334l21.651199999999996 37.77173333333333c4.457599999999999 7.776533333333333 4.457599999999999 17.333866666666665 0 25.1104l-21.651199999999996 37.77226666666667c-4.4992 7.8496 -12.855466666666667 12.691733333333334 -21.903466666666667 12.691733333333334h-42.98773333333333c-9.047999999999998 0 -17.40373333333333 -4.842133333333333 -21.903466666666667 -12.691733333333334l-21.651199999999996 -37.77226666666667c-4.457599999999999 -7.776533333333333 -4.457599999999999 -17.333866666666665 0 -25.1104l21.651199999999996 -37.77173333333333c4.499733333333333 -7.850133333333333 12.855466666666667 -12.691733333333334 21.903466666666667 -12.691733333333334h42.98773333333333Zm-10.1584 17.859199999999998h-22.67093333333333c-9.038933333333333 0 -17.387733333333333 4.832 -21.891199999999998 12.669333333333334l-11.441066666666666 19.912533333333332c-4.474666666666666 7.788266666666666 -4.474666666666666 17.367466666666665 0 25.155733333333334l11.441066666666666 19.912c4.503466666666666 7.8373333333333335 12.852266666666667 12.669333333333334 21.891199999999998 12.669333333333334h22.67093333333333c9.038933333333333 0 17.388266666666667 -4.832 21.891199999999998 -12.669333333333334l11.441066666666666 -19.912c4.474666666666666 -7.788266666666666 4.474666666666666 -17.367466666666665 0 -25.155733333333334l-11.441066666666666 -19.912533333333332c-4.502933333333333 -7.8373333333333335 -12.852266666666667 -12.669333333333334 -21.891199999999998 -12.669333333333334Zm-9.7808 17.0944c9.032 0 17.375999999999998 4.825066666666666 21.881066666666662 12.6528l1.6224 2.818133333333333c4.487466666666666 7.796266666666666 4.487466666666666 17.392 0 25.188266666666667l-1.6224 2.818133333333333c-4.505066666666666 7.828266666666666 -12.849066666666666 12.6528 -21.881066666666662 12.6528h-3.109333333333333c-9.032 0 -17.375466666666664 -4.824533333333333 -21.881066666666662 -12.6528l-1.6224 -2.818133333333333c-4.487466666666666 -7.796266666666666 -4.487466666666666 -17.392 0 -25.188266666666667l1.6224 -2.818133333333333c4.505599999999999 -7.827733333333333 12.849066666666666 -12.6528 21.881066666666662 -12.6528h3.109333333333333Zm-1.5504 16.838933333333333c-4.020266666666666 0 -7.7274666666666665 2.139733333333333 -9.734399999999999 5.613333333333333 -2.0069333333333335 3.4725333333333332 -2.0069333333333335 7.753066666666666 0 11.226133333333333 2.0069333333333335 3.4730666666666665 5.714133333333333 5.6128 9.725866666666667 5.6128 4.020266666666666 0 7.7274666666666665 -2.139733333333333 9.734399999999999 -5.6128 2.0069333333333335 -3.4730666666666665 2.0069333333333335 -7.7536 0 -11.226133333333333 -2.0069333333333335 -3.4736 -5.714133333333333 -5.613333333333333 -9.725866666666667 -5.613333333333333Zm-91.08053333333334 11.226133333333333h20.21173333333333Z" stroke-width="5.3333"></path>
</svg>